<svg width="36" height="36" viewBox="0 0 36 36" fill="none" xmlns="http://www.w3.org/2000/svg">
<path d="M30.0652 5.93484C26.8653 2.73496 22.5253 0.937286 18 0.937286C13.4747 0.937286 9.13475 2.73496 5.93487 5.93484C2.73499 9.13472 0.937317 13.4747 0.937317 18C0.937317 22.5253 2.73499 26.8653 5.93487 30.0651C9.13475 33.265 13.4747 35.0627 18 35.0627C22.5253 35.0627 26.8653 33.265 30.0652 30.0651C33.2651 26.8653 35.0627 22.5253 35.0627 18C35.0627 13.4747 33.2651 9.13472 30.0652 5.93484ZM28.2096 7.79202C28.8826 8.46792 29.4871 9.20871 30.0143 10.0036L24.4887 16.5234L19.9081 3.69046C23.0529 4.10126 25.9726 5.5438 28.2096 7.79202ZM22.5265 18.8203L19.5471 22.3263L15.0206 21.506L13.4735 17.1797L16.4529 13.6737L20.9794 14.494L22.5265 18.8203ZM7.79041 7.79202C10.2692 5.29978 13.5775 3.80559 17.0862 3.59367L19.9589 11.6327L6.56487 9.19312C6.94282 8.70021 7.35218 8.23221 7.79041 7.79202ZM4.65354 23.5026C3.87469 21.6007 3.50892 19.5549 3.58048 17.5009C3.65204 15.4469 4.15929 13.4316 5.06862 11.5884L13.4703 13.1224L4.65354 23.5026ZM7.79041 28.208C7.11742 27.5321 6.51291 26.7913 5.98573 25.9964L11.5114 19.4766L16.092 32.303C12.948 31.894 10.0284 30.4538 7.79041 28.208ZM28.2096 28.208C25.7309 30.7002 22.4225 32.1944 18.9139 32.4063L16.0411 24.3673L29.4352 26.8134C29.057 27.3041 28.6476 27.7699 28.2096 28.208ZM22.5298 22.8776L31.3465 12.4973C32.1254 14.3993 32.4911 16.4451 32.4196 18.4991C32.348 20.5531 31.8408 22.5684 30.9314 24.4116L22.5298 22.8776Z" fill="#6893FF"/>
</svg>
